<svg xmlns="http://www.w3.org/2000/svg" xmlns:xlink="http://www.w3.org/1999/xlink" viewBox="0 0 510 250"><defs><style>.cls-1{fill:#03b585;}.cls-2{fill:none;stroke:#03b585;stroke-miterlimit:10;stroke-width:2px;}.cls-3{fill:url(#linear-gradient);}.cls-4{fill:url(#linear-gradient-2);}.cls-5{opacity:0.44;isolation:isolate;fill:url(#radial-gradient);}</style><linearGradient id="linear-gradient" x1="696.16" y1="-36.9" x2="837.02" y2="-158.09" gradientTransform="matrix(0.56, 0, 0, -0.57, -88.14, 21.18)" gradientUnits="userSpaceOnUse"><stop offset="0" stop-color="#5a9fd4"/><stop offset="1" stop-color="#306998"/></linearGradient><linearGradient id="linear-gradient-2" x1="891.47" y1="-231.44" x2="841.17" y2="-160.27" gradientTransform="matrix(0.56, 0, 0, -0.57, -88.14, 21.18)" gradientUnits="userSpaceOnUse"><stop offset="0" stop-color="#ffd43b"/><stop offset="1" stop-color="#ffe873"/></linearGradient><radialGradient id="radial-gradient" cx="-1530.88" cy="-82.2" r="37.52" gradientTransform="matrix(0, -0.24, -1.05, 0, 292.43, -164.33)" gradientUnits="userSpaceOnUse"><stop offset="0" stop-color="#b8b8b8" stop-opacity="0.5"/><stop offset="1" stop-color="#7f7f7f" stop-opacity="0"/></radialGradient></defs><g id="NEW_Logo_resize_1_pixel_down" data-name="NEW Logo resize 1 pixel down"><path class="cls-1" d="M117,82c16.19,0,29,13.09,29,30v57H117V111H88V82ZM88,111v58H59V111ZM191,82v87a29.06,29.06,0,0,1-29-29V82Z"/><line class="cls-2" x1="249" y1="38" x2="249" y2="212"/></g><g id="Python_Logo" data-name="Python Logo"><path id="path1948" class="cls-3" d="M378,38a99.38,99.38,0,0,0-16.56,1.41c-14.66,2.59-17.32,8-17.32,18V70.63h34.65V75H331.08c-10.07,0-18.88,6-21.64,17.56-3.18,13.2-3.32,21.43,0,35.21,2.46,10.26,8.34,17.56,18.41,17.56h11.91V129.54c0-11.44,9.9-21.53,21.64-21.53H396a17.45,17.45,0,0,0,17.32-17.6v-33c0-9.39-7.92-16.44-17.32-18A107.88,107.88,0,0,0,378,38ZM359.22,48.62a6.6,6.6,0,1,1-6.5,6.62A6.57,6.57,0,0,1,359.22,48.62Z"/><path id="path1950" class="cls-4" d="M417.65,75V90.41c0,11.93-10.11,22-21.64,22H361.4c-9.47,0-17.32,8.11-17.32,17.6v33c0,9.39,8.17,14.91,17.32,17.6,11,3.23,21.49,3.81,34.61,0,8.72-2.52,17.32-7.6,17.32-17.6V149.76h-34.6v-4.4h51.92c10.07,0,13.82-7,17.32-17.56,3.62-10.85,3.47-21.29,0-35.21-2.49-10-7.24-17.56-17.32-17.56Zm-19.46,83.54a6.6,6.6,0,1,1-6.5,6.58A6.54,6.54,0,0,1,398.19,158.57Z"/><path id="path1894" class="cls-5" d="M425.54,203c0,5-20.78,9-46.42,9s-46.43-4-46.43-9,20.79-9,46.43-9S425.54,198,425.54,203Z"/></g></svg>